<svg xmlns="http://www.w3.org/2000/svg" aria-hidden="true" overflow="hidden" style="position:absolute;width:0;height:0">
  <defs>
    <symbol id="icon-Vector" viewBox="0 0 31 32">
      <path fill="none" stroke="var(--color1, #60bc96)" stroke-linecap="square" stroke-miterlimit="10" stroke-width="2.533" d="M19.532 28.447V19.58h8.867m-8.059.81 9.326 9.323M11.932 3.114v8.867H3.065m8.06-.811L1.799 1.847m26.6 10.133h-8.867V3.113m.81 8.06 9.323-9.326M3.066 19.58h8.867v8.867m-.811-8.059-9.323 9.326"/>
    </symbol>
    <symbol id="icon-Vector-7" viewBox="0 0 30 32">
      <path fill="var(--color1, #60bc96)" d="M2.267 9.202v13.48l9.925 5.663c-.113.328-.205.657-.277.985s-.139.667-.2 1.016L.297 23.821V8.063L14.085.184l13.788 7.879v5.909c-.287-.287-.595-.544-.923-.769s-.677-.446-1.046-.662V9.202L14.086 2.447 2.268 9.202zm11.818 2.262-3.939 2.247v4.463l3.462 1.985c.021.431.072.857.154 1.277s.2.836.354 1.246l-.031.015-5.909-3.385v-6.74l5.909-3.385 5.001 2.862c-.359.144-.708.303-1.046.477s-.672.38-1 .616l-2.955-1.677zm11.372 13.173c.667.339 1.272.754 1.816 1.246s1.005 1.046 1.385 1.662c.38.616.672 1.272.877 1.97s.308 1.426.308 2.185h-1.97c0-.81-.154-1.575-.462-2.293a5.919 5.919 0 0 0-3.155-3.154 5.498 5.498 0 0 0-2.293-.462c-.821 0-1.585.154-2.293.462s-1.334.728-1.877 1.262c-.544.533-.969 1.164-1.277 1.893s-.462 1.493-.462 2.293h-1.97c0-.749.103-1.472.308-2.17s.498-1.359.877-1.985c.38-.626.841-1.18 1.385-1.662s1.149-.898 1.816-1.246c-.759-.554-1.349-1.246-1.77-2.077s-.636-1.724-.646-2.678c0-.81.154-1.575.462-2.293s.728-1.344 1.262-1.877c.533-.533 1.159-.959 1.877-1.277s1.488-.472 2.308-.462c.81 0 1.575.154 2.293.462s1.344.728 1.877 1.262c.533.533.954 1.164 1.262 1.893s.462 1.493.462 2.293a5.898 5.898 0 0 1-2.401 4.755zm-7.432-4.755c0 .544.103 1.052.308 1.523s.487.893.846 1.262.774.651 1.246.846.985.297 1.539.308c.544 0 1.052-.103 1.523-.308s.892-.487 1.262-.846c.369-.359.651-.775.846-1.246s.297-.985.308-1.539c0-.544-.103-1.052-.308-1.523s-.487-.893-.846-1.262-.775-.651-1.246-.846-.985-.297-1.539-.308c-.544 0-1.052.103-1.523.308s-.892.487-1.262.846c-.369.359-.651.775-.846 1.246s-.297.985-.308 1.539z"/>
    </symbol>
    <symbol id="icon-Vector-3" viewBox="0 0 26 32">
      <path fill="var(--color1, #60bc96)" d="M9.463 32.705v-2.333h7.002v2.333H9.463zm16.333-19.833a12.777 12.777 0 0 1-4.679 9.896c-1.398 1.153-2.322 2.784-2.322 4.597v.674H7.128v-.523c0-1.75-.707-3.477-2.086-4.557A12.812 12.812 0 0 1 .359 10.408C1.283 5.433 5.24 1.362 10.194.328a12.842 12.842 0 0 1 10.804 2.537 12.838 12.838 0 0 1 4.797 10.007zM5.963 14.039c0-4.823 2.767-8.167 7-8.167V3.539c-5.63 0-9.333 4.475-9.333 10.5h2.333z"/>
    </symbol>
    <symbol id="icon-Vector-1" viewBox="0 0 32 32">
      <path fill="none" stroke="var(--color1, #60bc96)" stroke-linecap="round" stroke-linejoin="round" stroke-width="2.889" d="M14.841 2.171c-.532.22-1.007.696-1.959 1.647-.952.953-1.429 1.429-1.647 1.959a2.894 2.894 0 0 0 0 2.212c.218.532.693 1.007 1.647 1.959.95.952 1.427 1.429 1.959 1.647a2.888 2.888 0 0 0 2.21 0c.532-.218 1.007-.693 1.959-1.647.953-.952 1.427-1.427 1.647-1.959a2.888 2.888 0 0 0 0-2.21c-.22-.532-.693-1.007-1.647-1.959-.952-.953-1.427-1.429-1.959-1.648a2.888 2.888 0 0 0-2.21 0zm-9.194 9.192c-.53.22-1.007.695-1.957 1.647-.953.953-1.429 1.429-1.648 1.959a2.894 2.894 0 0 0 0 2.212c.22.532.696 1.007 1.647 1.959.953.952 1.429 1.427 1.959 1.647a2.894 2.894 0 0 0 2.212 0c.532-.22 1.007-.695 1.959-1.647.953-.952 1.427-1.427 1.647-1.959a2.888 2.888 0 0 0 0-2.21c-.22-.532-.693-1.008-1.647-1.96-.952-.952-1.427-1.427-1.959-1.647a2.89 2.89 0 0 0-2.211 0zm16.428 1.647c-.952.953-1.427 1.429-1.647 1.959a2.894 2.894 0 0 0 0 2.212c.22.532.695 1.007 1.647 1.959s1.429 1.427 1.959 1.647a2.888 2.888 0 0 0 2.21 0c.532-.22 1.008-.695 1.96-1.647s1.426-1.427 1.647-1.959a2.888 2.888 0 0 0 0-2.21c-.221-.532-.695-1.008-1.647-1.96-.953-.952-1.429-1.427-1.959-1.647a2.894 2.894 0 0 0-2.212 0c-.53.22-1.007.695-1.959 1.647zm-7.234 7.546c-.532.22-1.007.696-1.959 1.647-.952.953-1.429 1.429-1.647 1.96a2.888 2.888 0 0 0 0 2.21c.218.532.693 1.007 1.647 1.959.95.952 1.427 1.429 1.959 1.647a2.888 2.888 0 0 0 2.21 0c.532-.218 1.007-.693 1.959-1.647.953-.952 1.427-1.427 1.647-1.959a2.888 2.888 0 0 0 0-2.21c-.22-.532-.693-1.008-1.647-1.959-.952-.953-1.427-1.429-1.959-1.648a2.888 2.888 0 0 0-2.21 0z"/>
    </symbol>
    <symbol id="icon-Vector-8" viewBox="0 0 32 32">
      <path fill="var(--color1, #60bc96)" d="M2.49 15.938A13.383 13.383 0 0 1 8.317 4.895 13.376 13.376 0 0 1 28.804 19.34a13.365 13.365 0 0 1-3.082 5.644l1.561 1.786a15.687 15.687 0 0 0 4.322-10.832C31.605 7.246 24.559.2 15.867.2S.129 7.246.129 15.938A15.683 15.683 0 0 0 4.451 26.77l1.563-1.785a13.335 13.335 0 0 1-3.524-9.048zm24.787.196a11.168 11.168 0 0 1-2.806 7.42L22.9 21.76a8.85 8.85 0 0 0-6.684-14.476 8.848 8.848 0 0 0-8.057 4.869 8.855 8.855 0 0 0 .882 9.372l-1.58 1.804A11.222 11.222 0 0 1 5.234 13.22a11.21 11.21 0 0 1 12.298-8.201 11.222 11.222 0 0 1 8.477 5.941 11.21 11.21 0 0 1 1.267 5.176zm-4.722-.196a6.665 6.665 0 0 1-1.292 3.952l-1.615-1.844a4.324 4.324 0 0 0-1.633-5.861 4.332 4.332 0 0 0-4.298 0 4.327 4.327 0 0 0-1.633 5.861l-1.615 1.843a6.681 6.681 0 0 1-.97-6.001 6.694 6.694 0 0 1 7.405-4.558 6.69 6.69 0 0 1 5.65 6.609zm-6.688.787a1.17 1.17 0 0 1 .887.403l11.016 12.59a1.171 1.171 0 0 1 .187 1.265 1.185 1.185 0 0 1-1.074.693H4.85a1.175 1.175 0 0 1-1.074-.693 1.179 1.179 0 0 1 .187-1.265l11.016-12.59a1.182 1.182 0 0 1 .887-.403z"/>
    </symbol>
    <symbol id="icon-Vector-6" viewBox="0 0 32 32">
      <path fill="var(--color1, #60bc96)" d="M11.809 4.655C5.448 4.655.296 9.807.296 16.168s5.152 11.513 11.513 11.513 11.513-5.152 11.513-11.513S18.17 4.655 11.809 4.655zm4.317 9.355h-2.878v7.196H10.37V14.01H7.492v-2.159h8.635v2.159zm11.873-9.714 3.958 1.799-3.958 1.799-1.799 3.958-1.799-3.958-3.958-1.799 3.958-1.799L26.2.338l1.799 3.958zm0 20.148 3.958 1.799-3.958 1.799L26.2 32l-1.799-3.958-3.958-1.799 3.958-1.799 1.799-3.958 1.799 3.958z"/>
    </symbol>
    <symbol id="icon-Vector-4" viewBox="0 0 31 32">
      <path fill="var(--color1, #60bc96)" d="M25.593 21.971a4.931 4.931 0 0 0-3.556 1.531l-12.04-6.025a4.416 4.416 0 0 0 0-2.765l12.059-6.133a5.06 5.06 0 0 0 6.77.513 5.06 5.06 0 0 0 1.177-6.687 5.058 5.058 0 0 0-8.991.857 5.052 5.052 0 0 0-.013 3.639L9.058 12.975a4.938 4.938 0 1 0 0 6.251l11.911 5.995a4.867 4.867 0 0 0-.306 1.689 4.932 4.932 0 0 0 5.901 4.844 4.93 4.93 0 0 0 3.88-3.88 4.932 4.932 0 0 0-2.1-5.069 4.943 4.943 0 0 0-2.744-.832h-.01zm0-19.753a2.966 2.966 0 0 1 2.737 1.829 2.968 2.968 0 0 1-.642 3.229 2.965 2.965 0 0 1-4.559-.449 2.958 2.958 0 0 1 .369-3.741 2.966 2.966 0 0 1 2.095-.868zM5.317 19.008a2.966 2.966 0 0 1-2.737-1.829 2.968 2.968 0 0 1 .642-3.229 2.96 2.96 0 0 1 4.559.449 2.958 2.958 0 0 1-.369 3.741 2.966 2.966 0 0 1-2.095.868zm20.276 10.864a2.966 2.966 0 0 1-2.737-1.829 2.968 2.968 0 0 1 .642-3.229 2.96 2.96 0 0 1 4.559.449 2.958 2.958 0 0 1-.369 3.741 2.966 2.966 0 0 1-2.095.868z"/>
    </symbol>
    <symbol id="icon-Vector2" viewBox="0 0 26 32">
      <path fill="var(--color1, #60bc96)" d="M.196-.03v13.933l4.267-2.44V6.996L8.37 9.223l4.013-2.293L.196-.03zm25.747 0-12.2 6.96 4.027 2.307 3.92-2.24v4.467l4.267 2.44V-.029h-.013zm-13.2 7.52L.21 14.663V31.97l12.533-7.147V19.81l-8.28 4.747v-7.333l8.28-4.72V7.491zm.666 0v5.013l8.293 4.72v7.333l-8.293-4.747v5.013l12.547 7.147V14.662L13.409 7.489zm-6.066 8.88-2.2 1.253v2.48l2.893 1.653 4.373-2.493-5.067-2.893zm11.48 0-5.067 2.88 4.373 2.507 2.893-1.653v-2.48l-2.2-1.253z"/>
    </symbol>
    <symbol id="icon-Group-2" viewBox="0 0 15 32">
<path stroke-linejoin="miter" stroke-linecap="butt" stroke-miterlimit="4" stroke-width="0.3046" d="M1.682 16.307v0c0.129-1.57 2.428-1.57 2.557 0v0 0c0.125 1.552 2.398 1.552 2.523 0v0 0c0.125-1.552 2.398-1.552 2.523 0v0 0c0.125 1.552 2.398 1.552 2.523 0v0 0c0.125-1.552 2.398-1.552 2.523 0v0"></path>
</symbol>
  </defs>
</svg>