<svg width="1193" height="2626" viewBox="0 0 1193 2626" fill="none" xmlns="http://www.w3.org/2000/svg">
<path d="M25 1280.16V1280.16C35.5612 1151.28 224.247 1151.28 234.809 1280.16V1280.16V1280.16C245.048 1407.54 431.617 1407.54 441.856 1280.16V1280.16V1280.16C452.152 1152.84 638.608 1152.84 648.904 1280.16V1280.16V1280.16C659.144 1407.54 845.712 1407.54 855.952 1280.16V1280.16V1280.16C866.248 1152.84 1052.7 1152.84 1063 1280.16V1280.16" stroke="#60BC96" stroke-opacity="0.02" stroke-width="5"/>
<path d="M45 1285.66V1285.66C55.5454 1156.9 244.061 1156.9 254.606 1285.66V1285.66V1285.66C264.831 1412.93 451.23 1412.93 461.455 1285.66V1285.66V1285.66C471.736 1158.46 658.022 1158.46 668.303 1285.66V1285.66V1285.66C678.528 1412.93 864.927 1412.93 875.152 1285.66V1285.66V1285.66C885.432 1158.46 1071.72 1158.46 1082 1285.66V1285.66" stroke="#60BC96" stroke-opacity="0.04" stroke-width="8"/>
<path d="M65 1295.16V1295.16C75.5612 1166.28 264.247 1166.28 274.809 1295.16V1295.16V1295.16C285.048 1422.54 471.617 1422.54 481.856 1295.16V1295.16V1295.16C492.152 1167.84 678.608 1167.84 688.904 1295.16V1295.16V1295.16C699.144 1422.54 885.712 1422.54 895.952 1295.16V1295.16V1295.16C906.248 1167.84 1092.7 1167.84 1103 1295.16V1295.16" stroke="#60BC96" stroke-opacity="0.09" stroke-width="10"/>
<path d="M88 1305.66V1305.66C98.5649 1176.79 287.244 1176.79 297.809 1305.66V1305.66V1305.66C308.052 1433.04 494.613 1433.04 504.856 1305.66V1305.66V1305.66C515.156 1178.34 701.604 1178.34 711.904 1305.66V1305.66V1305.66C722.148 1433.04 908.709 1433.04 918.952 1305.66V1305.66V1305.66C929.252 1178.34 1115.7 1178.34 1126 1305.66V1305.66" stroke="#60BC96" stroke-opacity="0.2" stroke-width="13"/>
<path d="M112 1320.16V1320.16C122.581 1191.17 311.43 1191.17 322.011 1320.16V1320.16V1320.16C332.269 1447.65 518.999 1447.65 529.258 1320.16V1320.16V1320.16C539.573 1192.73 726.19 1192.73 736.505 1320.16V1320.16V1320.16C746.764 1447.65 933.494 1447.65 943.753 1320.16V1320.16V1320.16C954.068 1192.73 1140.68 1192.73 1151 1320.16V1320.16" stroke="#60BC96" stroke-opacity="0.39" stroke-width="15"/>
<g filter="url(#filter0_d_242_133)">
<path d="M138 1338.16V1338.16C148.561 1209.28 337.247 1209.28 347.809 1338.16V1338.16V1338.16C358.048 1465.54 544.617 1465.54 554.856 1338.16V1338.16V1338.16C565.152 1210.84 751.608 1210.84 761.904 1338.16V1338.16V1338.16C772.144 1465.54 958.712 1465.54 968.952 1338.16V1338.16V1338.16C979.248 1210.84 1165.7 1210.84 1176 1338.16V1338.16" stroke="url(#paint0_linear_242_133)" stroke-width="25"/>
</g>
<line x1="106.4" y1="1404.3" x2="0.399653" y2="1545.3" stroke="#757575" stroke-dasharray="6 6"/>
<line x1="542.464" y1="1405.19" x2="469.464" y2="1586.19" stroke="#757575" stroke-dasharray="6 6"/>
<line x1="967.488" y1="1403.11" x2="930.488" y2="1566.11" stroke="#757575" stroke-dasharray="6 6"/>
<line x1="325.478" y1="1415.15" x2="204.478" y2="1812.15" stroke="#757575" stroke-dasharray="6 6"/>
<line x1="751.486" y1="1400.12" x2="640.486" y2="1854.12" stroke="#757575" stroke-dasharray="6 6"/>
<line x1="1179.5" y1="1400.99" x2="1188.5" y2="1814.99" stroke="#757575" stroke-dasharray="6 6"/>
<defs>
<filter id="filter0_d_242_133" x="121.541" y="1229" width="1070.92" height="225.195" filterUnits="userSpaceOnUse" color-interpolation-filters="sRGB">
<feFlood flood-opacity="0" result="BackgroundImageFix"/>
<feColorMatrix in="SourceAlpha" type="matrix" values="0 0 0 0 0 0 0 0 0 0 0 0 0 0 0 0 0 0 127 0" result="hardAlpha"/>
<feOffset dy="4"/>
<feGaussianBlur stdDeviation="2"/>
<feComposite in2="hardAlpha" operator="out"/>
<feColorMatrix type="matrix" values="0 0 0 0 0 0 0 0 0 0 0 0 0 0 0 0 0 0 0.25 0"/>
<feBlend mode="normal" in2="BackgroundImageFix" result="effect1_dropShadow_242_133"/>
<feBlend mode="normal" in="SourceGraphic" in2="effect1_dropShadow_242_133" result="shape"/>
</filter>
<linearGradient id="paint0_linear_242_133" x1="1176" y1="1247.25" x2="137.963" y2="1249.13" gradientUnits="userSpaceOnUse">
<stop stop-color="#3CB0CF"/>
<stop offset="0.307292" stop-color="#6479BA"/>
<stop offset="0.520833" stop-color="#57B05E"/>
<stop offset="0.757899" stop-color="#FDC032"/>
<stop offset="1" stop-color="#DD3B1E"/>
</linearGradient>
</defs>
</svg>
