<svg width="54" height="66" viewBox="0 0 54 66" fill="none" xmlns="http://www.w3.org/2000/svg">
<path d="M19.5171 67.4545V62.642H33.9595V67.4545H19.5171ZM53.2046 26.5482C53.2076 30.4524 52.3436 34.3084 50.6749 37.838C49.0062 41.3676 46.5746 44.4826 43.5556 46.958C40.6729 49.3354 38.7671 52.6993 38.7671 56.4386V57.8295H14.7046V56.7515C14.7046 53.1421 13.2464 49.5808 10.4023 47.3526C6.56142 44.3484 3.62638 40.3403 1.92176 35.7717C0.217145 31.2032 -0.190619 26.2521 0.743572 21.4662C2.64932 11.206 10.8113 2.80815 21.0283 0.676211C24.8973 -0.1727 28.9075 -0.14337 32.7637 0.762043C36.62 1.66746 40.2242 3.42592 43.3111 5.90805C46.3981 8.39018 48.8893 11.5328 50.6015 15.1048C52.3136 18.6767 53.2032 22.5871 53.2046 26.5482ZM12.2984 28.9545C12.2984 19.007 18.006 12.1107 26.7359 12.1107V7.29821C15.1233 7.29821 7.48589 16.5286 7.48589 28.9545H12.2984Z" fill="#60BC96"/>
</svg>
