<svg width="61" height="61" viewBox="0 0 61 61" fill="none" xmlns="http://www.w3.org/2000/svg">
<path d="M4.74612 30.3813C4.74621 26.234 5.75787 22.1493 7.69339 18.4813C9.62891 14.8133 12.4299 11.6728 15.8534 9.33195C19.277 6.99112 23.2199 5.52065 27.3402 5.04803C31.4605 4.5754 35.6339 5.11489 39.4986 6.61972C43.3633 8.12454 46.8026 10.5493 49.5184 13.6837C52.2342 16.8182 54.1445 20.5678 55.0837 24.6073C56.0229 28.6469 55.9626 32.8546 54.9081 36.8657C53.8535 40.8767 51.8366 44.57 49.0321 47.6253L52.0081 51.0303C57.3062 45.4621 60.2564 38.0674 60.2461 30.3813C60.2461 13.8123 46.8151 0.381348 30.2461 0.381348C13.6771 0.381348 0.24612 13.8123 0.24612 30.3813C0.235869 38.0674 3.18603 45.4621 8.48412 51.0303L11.4631 47.6283C7.13548 42.9282 4.73723 36.7704 4.74612 30.3813ZM51.9961 30.7563C52.0038 35.967 50.1007 40.9996 46.6471 44.9013L43.6531 41.4813C45.67 39.0305 46.9548 36.0604 47.3599 32.9123C47.765 29.7642 47.2741 26.5656 45.9434 23.6839C44.6127 20.8022 42.4963 18.3543 39.8371 16.6211C37.178 14.888 34.084 13.94 30.9103 13.8859C27.7367 13.8319 24.6122 14.674 21.8956 16.3155C19.1789 17.9571 16.9804 20.3316 15.5523 23.1662C14.1243 26.0009 13.5246 29.1809 13.8223 32.341C14.12 35.5011 15.3029 38.5132 17.2351 41.0313L14.2231 44.4693C12.0192 41.8347 10.4826 38.7076 9.74363 35.3531C9.00465 31.9986 9.085 28.5153 9.97787 25.1984C10.8707 21.8816 12.5498 18.8287 14.8729 16.2984C17.1961 13.7682 20.0947 11.8351 23.3235 10.6628C26.5522 9.49058 30.0159 9.11372 33.4212 9.56419C36.8265 10.0147 40.0731 11.2792 42.886 13.2506C45.6989 15.2221 47.9953 17.8424 49.5806 20.8897C51.1659 23.9369 51.9964 27.3214 51.9961 30.7563ZM42.9961 30.3813C43.0004 33.0909 42.1373 35.7307 40.5331 37.9143L37.4551 34.3983C38.1539 33.1426 38.5126 31.726 38.4955 30.289C38.4785 28.852 38.0864 27.4443 37.358 26.2054C36.6296 24.9666 35.5903 23.9395 34.3429 23.2258C33.0954 22.5122 31.6832 22.1368 30.2461 22.1368C28.809 22.1368 27.3968 22.5122 26.1494 23.2258C24.902 23.9395 23.8626 24.9666 23.1342 26.2054C22.4059 27.4443 22.0137 28.852 21.9967 30.289C21.9797 31.726 22.3383 33.1426 23.0371 34.3983L19.9591 37.9113C18.7691 36.2862 17.9811 34.4023 17.6596 32.414C17.3381 30.4256 17.4922 28.3893 18.1094 26.472C18.7266 24.5547 19.7892 22.8109 21.2102 21.3834C22.6313 19.956 24.3703 18.8855 26.2848 18.2597C28.1993 17.6339 30.2349 17.4706 32.2247 17.7832C34.2145 18.0958 36.1019 18.8753 37.7324 20.058C39.3628 21.2406 40.6898 22.7927 41.6048 24.5871C42.5197 26.3815 42.9965 28.3671 42.9961 30.3813ZM30.2461 31.8813C30.5666 31.8815 30.8833 31.9501 31.1751 32.0825C31.4669 32.215 31.727 32.4082 31.9381 32.6493L52.9381 56.6493C53.2228 56.9746 53.4078 57.3749 53.471 57.8025C53.5342 58.23 53.4728 58.6668 53.2944 59.0604C53.1159 59.4541 52.8278 59.788 52.4646 60.0222C52.1014 60.2565 51.6783 60.3812 51.2461 60.3813H9.24612C8.8139 60.3812 8.39089 60.2565 8.02765 60.0222C7.66442 59.788 7.37634 59.4541 7.19787 59.0604C7.0194 58.6668 6.95809 58.23 7.02126 57.8025C7.08444 57.3749 7.26943 56.9746 7.55412 56.6493L28.5541 32.6493C28.7652 32.4082 29.0253 32.215 29.3171 32.0825C29.6089 31.9501 29.9257 31.8815 30.2461 31.8813Z" fill="#60BC96"/>
</svg>
