<svg width="62" height="66" viewBox="0 0 62 66" fill="none" xmlns="http://www.w3.org/2000/svg">
<path d="M4.67578 18.98V46.7827L25.147 58.4624C24.9142 59.1395 24.7238 59.8166 24.5757 60.4937C24.4276 61.1707 24.29 61.869 24.1631 62.5884L0.613281 49.1313V16.6313L29.0508 0.381348L57.4883 16.6313V28.8188C56.8958 28.2264 56.2611 27.6974 55.584 27.2319C54.9069 26.7664 54.1875 26.3115 53.4258 25.8672V18.98L29.0508 5.04688L4.67578 18.98ZM29.0508 23.6455L20.9258 28.2793V37.4834L28.0669 41.5776C28.1092 42.4663 28.215 43.3444 28.3843 44.2119C28.5535 45.0794 28.7969 45.9364 29.1143 46.7827L29.0508 46.8145L16.8633 39.832V25.9307L29.0508 18.9482L39.3657 24.8516C38.6252 25.1478 37.9058 25.4757 37.2075 25.8354C36.5093 26.1952 35.8216 26.6183 35.1445 27.105L29.0508 23.6455ZM52.5054 50.8135C53.8807 51.5117 55.1291 52.3687 56.2505 53.3843C57.3719 54.3999 58.3241 55.5425 59.1069 56.812C59.8898 58.0815 60.4928 59.4357 60.916 60.8745C61.3392 62.3133 61.5508 63.8156 61.5508 65.3813H57.4883C57.4883 63.7098 57.1709 62.1335 56.5361 60.6523C55.9014 59.1712 55.0339 57.8805 53.9336 56.7803C52.8333 55.68 51.5321 54.8019 50.0298 54.146C48.5275 53.4901 46.9512 53.1727 45.3008 53.1938C43.6081 53.1938 42.0317 53.5112 40.5718 54.146C39.1118 54.7808 37.8211 55.6483 36.6997 56.7485C35.5783 57.8488 34.7002 59.1501 34.0654 60.6523C33.4307 62.1546 33.1133 63.731 33.1133 65.3813H29.0508C29.0508 63.8368 29.2624 62.3451 29.6855 60.9062C30.1087 59.4674 30.7118 58.1027 31.4946 56.812C32.2775 55.5213 33.2297 54.3787 34.3511 53.3843C35.4725 52.3898 36.7209 51.5329 38.0962 50.8135C36.5304 49.6709 35.3138 48.2427 34.4463 46.5288C33.5788 44.8149 33.1344 42.9741 33.1133 41.0063C33.1133 39.3348 33.4307 37.7585 34.0654 36.2773C34.7002 34.7962 35.5677 33.5055 36.668 32.4053C37.7682 31.305 39.0589 30.4269 40.54 29.771C42.0212 29.1151 43.6081 28.7977 45.3008 28.8188C46.9723 28.8188 48.5487 29.1362 50.0298 29.771C51.5109 30.4058 52.8016 31.2733 53.9019 32.3735C55.0021 33.4738 55.8696 34.7751 56.5044 36.2773C57.1392 37.7796 57.4565 39.356 57.4565 41.0063C57.4565 42.953 57.0228 44.7832 56.1553 46.4971C55.2878 48.2109 54.0711 49.6497 52.5054 50.8135ZM37.1758 41.0063C37.1758 42.1278 37.3874 43.1751 37.8105 44.1484C38.2337 45.1217 38.8156 45.9893 39.5562 46.751C40.2967 47.5127 41.1536 48.0946 42.127 48.4966C43.1003 48.8986 44.1582 49.1102 45.3008 49.1313C46.4222 49.1313 47.4696 48.9198 48.4429 48.4966C49.4162 48.0734 50.2837 47.4915 51.0454 46.751C51.8071 46.0104 52.389 45.1535 52.791 44.1802C53.193 43.2069 53.4046 42.1489 53.4258 41.0063C53.4258 39.8849 53.2142 38.8376 52.791 37.8643C52.3678 36.8909 51.786 36.0234 51.0454 35.2617C50.3049 34.5 49.4479 33.9181 48.4746 33.5161C47.5013 33.1141 46.4434 32.9025 45.3008 32.8813C44.1794 32.8813 43.132 33.0929 42.1587 33.5161C41.1854 33.9393 40.3179 34.5212 39.5562 35.2617C38.7944 36.0023 38.2126 36.8592 37.8105 37.8325C37.4085 38.8058 37.1969 39.8638 37.1758 41.0063Z" fill="#60BC96"/>
</svg>
