<svg width="60" height="60" viewBox="0 0 60 60" fill="none" xmlns="http://www.w3.org/2000/svg">
<path d="M27.827 4.0706C26.8304 4.48227 25.9393 5.37602 24.1545 7.1581C22.3697 8.9456 21.476 9.83664 21.067 10.8306C20.7947 11.4879 20.6546 12.1924 20.6546 12.9038C20.6546 13.6153 20.7947 14.3198 21.067 14.9771C21.476 15.9737 22.367 16.8648 24.1545 18.6496C25.9366 20.4343 26.8304 21.3281 27.827 21.7371C29.1537 22.2863 30.6441 22.2863 31.9708 21.7371C32.9674 21.3281 33.8585 20.4371 35.6433 18.6496C37.4308 16.8648 38.3191 15.9737 38.7308 14.9771C39.28 13.6504 39.28 12.16 38.7308 10.8333C38.3191 9.83664 37.4308 8.9456 35.6433 7.16081C33.8585 5.37331 32.9674 4.48227 31.9708 4.0706C30.6441 3.52139 29.1537 3.52139 27.827 4.0706ZM10.5885 21.3064C9.59453 21.7181 8.70078 22.6091 6.91869 24.3939C5.13119 26.1814 4.24015 27.0725 3.82848 28.0664C3.55617 28.7237 3.41602 29.4282 3.41602 30.1397C3.41602 30.8511 3.55617 31.5556 3.82848 32.2129C4.24015 33.2096 5.1339 34.1006 6.91598 35.8854C8.70348 37.6702 9.59453 38.5612 10.5885 38.9729C11.2458 39.2452 11.9503 39.3854 12.6617 39.3854C13.3732 39.3854 14.0777 39.2452 14.7349 38.9729C15.7316 38.5612 16.6227 37.6702 18.4074 35.8854C20.1949 34.1006 21.0833 33.2096 21.4949 32.2129C22.0442 30.8862 22.0442 29.3958 21.4949 28.0691C21.0833 27.0725 20.1949 26.1787 18.4074 24.3939C16.6227 22.6091 15.7316 21.7181 14.7349 21.3064C13.4083 20.7572 11.9151 20.7572 10.5885 21.3064ZM41.3904 24.3939C39.6056 26.1814 38.7145 27.0725 38.3029 28.0664C38.0305 28.7237 37.8904 29.4282 37.8904 30.1397C37.8904 30.8511 38.0305 31.5556 38.3029 32.2129C38.7145 33.2096 39.6056 34.1006 41.3904 35.8854C43.1751 37.6702 44.0689 38.5612 45.0629 38.9729C46.3895 39.5221 47.8799 39.5221 49.2066 38.9729C50.2033 38.5612 51.097 37.6702 52.8818 35.8854C54.6666 34.1006 55.5549 33.2096 55.9693 32.2129C56.5185 30.8862 56.5185 29.3958 55.9693 28.0691C55.5549 27.0725 54.6666 26.1787 52.8818 24.3939C51.0943 22.6091 50.2033 21.7181 49.2093 21.3064C48.552 21.0341 47.8475 20.894 47.1361 20.894C46.4246 20.894 45.7201 21.0341 45.0629 21.3064C44.0689 21.7181 43.1751 22.6091 41.3904 24.3939ZM27.827 38.5423C26.8304 38.9539 25.9393 39.8477 24.1545 41.6298C22.3697 43.4173 21.476 44.3083 21.067 45.305C20.5178 46.6316 20.5178 48.1221 21.067 49.4487C21.476 50.4454 22.367 51.3364 24.1545 53.1212C25.9366 54.906 26.8304 55.7998 27.827 56.2087C29.1537 56.7579 30.6441 56.7579 31.9708 56.2087C32.9674 55.7998 33.8585 54.9087 35.6433 53.1212C37.4308 51.3364 38.3191 50.4454 38.7308 49.4487C39.2806 48.1216 39.2806 46.6321 38.7308 45.305C38.3191 44.3083 37.4308 43.4146 35.6433 41.6325C33.8585 39.845 32.9674 38.9539 31.9708 38.5423C30.6441 37.9931 29.1537 37.9931 27.827 38.5423Z" stroke="#60BC96" stroke-width="5.41667" stroke-linecap="round" stroke-linejoin="round"/>
</svg>
