<svg width="61" height="63" viewBox="0 0 61 63" fill="none" xmlns="http://www.w3.org/2000/svg">
<path d="M50.3866 43.2547C49.077 43.2597 47.7818 43.5292 46.579 44.0472C45.3761 44.5651 44.2902 45.3207 43.3866 46.2686L19.6838 34.4075C20.2669 32.6395 20.2669 30.731 19.6838 28.963L43.4255 16.888C45.126 18.6801 47.4322 19.7758 49.8956 19.9623C52.3591 20.1488 54.8039 19.4127 56.7548 17.897C58.7057 16.3813 60.0234 14.1944 60.4518 11.7614C60.8802 9.32828 60.3886 6.82284 59.0726 4.73202C57.7566 2.6412 55.7102 1.11436 53.3312 0.448274C50.9522 -0.217811 48.4105 0.0244441 46.2002 1.12795C43.9898 2.23146 42.2687 4.11738 41.3714 6.41916C40.4741 8.72094 40.4646 11.2741 41.3449 13.5825L17.8366 25.5408C16.567 23.9881 14.8482 22.866 12.9158 22.3285C10.9835 21.7909 8.93213 21.8641 7.04304 22.5381C5.15395 23.2122 3.51955 24.4539 2.36389 26.0933C1.20824 27.7326 0.587891 29.6893 0.587891 31.695C0.587891 33.7007 1.20824 35.6574 2.36389 37.2967C3.51955 38.936 5.15395 40.1778 7.04304 40.8518C8.93213 41.5258 10.9835 41.5991 12.9158 41.0615C14.8482 40.524 16.567 39.4019 17.8366 37.8492L41.2866 49.6519C40.8904 50.7158 40.6863 51.8416 40.6838 52.9769C40.6838 54.8998 41.254 56.7795 42.3223 58.3783C43.3906 59.9771 44.909 61.2232 46.6855 61.9591C48.462 62.6949 50.4168 62.8875 52.3027 62.5123C54.1887 62.1372 55.921 61.2113 57.2807 59.8516C58.6404 58.4919 59.5663 56.7596 59.9414 54.8736C60.3166 52.9877 60.124 51.0329 59.3882 49.2564C58.6523 47.4799 57.4062 45.9615 55.8074 44.8932C54.2086 43.8249 52.3289 43.2547 50.406 43.2547H50.3866ZM50.3866 4.36582C51.5403 4.36582 52.6681 4.70794 53.6274 5.34891C54.5867 5.98989 55.3344 6.90093 55.7759 7.96683C56.2174 9.03273 56.3329 10.2056 56.1078 11.3372C55.8828 12.4687 55.3272 13.5081 54.5114 14.3239C53.6956 15.1397 52.6562 15.6953 51.5246 15.9204C50.3931 16.1455 49.2202 16.03 48.1543 15.5884C47.0884 15.1469 46.1773 14.3993 45.5364 13.44C44.8954 12.4807 44.5533 11.3529 44.5533 10.1992C44.5533 8.65205 45.1678 7.16832 46.2618 6.07436C47.3558 4.9804 48.8395 4.36582 50.3866 4.36582ZM10.4671 37.4214C9.31342 37.4214 8.1856 37.0793 7.22632 36.4383C6.26703 35.7973 5.51936 34.8863 5.07785 33.8204C4.63634 32.7545 4.52082 31.5816 4.7459 30.45C4.97098 29.3185 5.52655 28.2791 6.34235 27.4633C7.15816 26.6474 8.19756 26.0919 9.32912 25.8668C10.4607 25.6417 11.6336 25.7572 12.6995 26.1987C13.7654 26.6403 14.6764 27.3879 15.3174 28.3472C15.9584 29.3065 16.3005 30.4343 16.3005 31.588C16.3005 33.1351 15.6859 34.6189 14.5919 35.7128C13.498 36.8068 12.0142 37.4214 10.4671 37.4214ZM50.3866 58.8103C49.2329 58.8103 48.105 58.4681 47.1458 57.8272C46.1865 57.1862 45.4388 56.2752 44.9973 55.2093C44.5558 54.1433 44.4403 52.9705 44.6653 51.8389C44.8904 50.7073 45.446 49.6679 46.2618 48.8521C47.0776 48.0363 48.117 47.4808 49.2486 47.2557C50.3801 47.0306 51.553 47.1461 52.6189 47.5876C53.6848 48.0291 54.5959 48.7768 55.2368 49.7361C55.8778 50.6954 56.2199 51.8232 56.2199 52.9769C56.2199 54.524 55.6053 56.0078 54.5114 57.1017C53.4174 58.1957 51.9337 58.8103 50.3866 58.8103Z" fill="#60BC96"/>
</svg>
