<svg width="63" height="63" viewBox="0 0 63 63" fill="none" xmlns="http://www.w3.org/2000/svg">
<path d="M23.2487 9.16553C10.7254 9.16553 0.582031 19.3089 0.582031 31.8322C0.582031 44.3555 10.7254 54.4989 23.2487 54.4989C35.772 54.4989 45.9154 44.3555 45.9154 31.8322C45.9154 19.3089 35.772 9.16553 23.2487 9.16553ZM31.7487 27.5822H26.082V41.7489H20.4154V27.5822H14.7487V23.3322H31.7487V27.5822ZM55.1237 8.45719L62.9154 11.9989L55.1237 15.5405L51.582 23.3322L48.0404 15.5405L40.2487 11.9989L48.0404 8.45719L51.582 0.665527L55.1237 8.45719ZM55.1237 48.1239L62.9154 51.6655L55.1237 55.2072L51.582 62.9989L48.0404 55.2072L40.2487 51.6655L48.0404 48.1239L51.582 40.3322L55.1237 48.1239Z" fill="#60BC96"/>
</svg>
