<svg width="53" height="65" viewBox="0 0 53 65" fill="none" xmlns="http://www.w3.org/2000/svg">
<path d="M0.398438 -0.0610352V28.241L9.0651 23.2848V14.2119L17.0005 18.7348L25.1526 14.0765L0.398438 -0.0610352ZM52.6964 -0.0610352L27.9151 14.0765L36.0943 18.7619L44.0568 14.2119V23.2848L52.7234 28.241V-0.0610352H52.6964ZM25.8839 15.214L0.425521 29.7848V64.939L25.8839 50.4223V40.239L9.0651 49.8806V34.9848L25.8839 25.3973V15.214ZM27.238 15.214V25.3973L44.0839 34.9848V49.8806L27.238 40.239V50.4223L52.7234 64.939V29.7848L27.238 15.214ZM14.9151 33.2515L10.4464 35.7973V40.8348L16.3234 44.1931L25.2068 39.1285L14.9151 33.2515ZM38.2339 33.2515L27.9422 39.1015L36.8255 44.1931L42.7026 40.8348V35.7973L38.2339 33.2515Z" fill="#60BC96"/>
</svg>
